<svg width="51" height="51" viewBox="0 0 51 51" fill="none" xmlns="http://www.w3.org/2000/svg">
<path d="M29.4198 25.8063C29.4198 26.8346 29.2113 27.8528 28.806 28.8028C28.4008 29.7528 27.8069 30.6159 27.0581 31.343C26.3093 32.0701 25.4204 32.6469 24.4421 33.0404C23.4638 33.4339 22.4153 33.6364 21.3563 33.6364C20.2974 33.6364 19.2489 33.4339 18.2706 33.0404C17.2923 32.6469 16.4034 32.0701 15.6546 31.343C14.9058 30.6159 14.3119 29.7528 13.9066 28.8028C13.5014 27.8528 13.2928 26.8346 13.2928 25.8063C13.2928 23.7297 14.1424 21.7381 15.6546 20.2697C17.1668 18.8013 19.2178 17.9763 21.3563 17.9763C23.4949 17.9763 25.5459 18.8013 27.0581 20.2697C28.5703 21.7381 29.4198 23.7297 29.4198 25.8063Z" fill="#22577A"/>
<path d="M47.4888 7.03955L44.0489 3.69922C41.6425 1.37178 38.3831 0.0670176 34.9867 0.0715449C31.5837 0.0715449 28.3657 1.36458 25.9615 3.69922L25.6286 4.04044C23.8716 5.74652 21.5229 6.80609 19.0261 7.0216C14.2361 7.41669 9.74202 9.44603 6.35757 12.7325C4.4899 14.5381 3.0087 16.6849 1.99933 19.0489C0.989957 21.413 0.472371 23.9477 0.476402 26.5069C0.468424 29.1869 1.03411 31.8393 2.13758 34.2958C3.24105 36.7524 4.85822 38.9594 6.88651 40.7769L11.0921 44.8608C12.8852 46.6033 15.0144 47.9856 17.3579 48.9287C19.7014 49.8718 22.2133 50.3572 24.7501 50.3572C27.2869 50.3572 29.7988 49.8718 32.1423 48.9287C34.4859 47.9856 36.615 46.6033 38.4081 44.8608C41.6816 41.6821 43.6975 37.4797 44.0858 32.99C44.1635 32.0992 44.1598 31.2157 44.1543 30.3536C44.1395 27.931 44.1265 25.6772 45.9538 23.9029L47.4888 22.4123C49.5849 20.3721 50.762 17.6078 50.762 14.7259C50.762 11.844 49.5849 9.07977 47.4888 7.03955ZM8.28097 38.3956C7.81862 37.9466 7.3877 37.4797 6.98823 36.9948L7.00302 37.0523C4.33341 33.8236 2.98344 29.7524 3.21137 25.6177C3.4393 21.483 5.22913 17.575 8.23844 14.6415L8.28097 14.6002C11.2248 11.7396 15.1166 9.98357 19.2666 9.64358C22.3921 9.39216 25.3327 8.0632 27.552 5.90815L27.8978 5.57232C28.823 4.66574 29.9241 3.94615 31.1373 3.45512C32.3505 2.96409 33.6519 2.71134 34.9663 2.71149C36.9553 2.70543 38.9013 3.27281 40.5578 4.34173C42.2144 5.41064 43.5069 6.93299 44.2716 8.71589C45.0364 10.4988 45.2389 12.462 44.8535 14.3567C44.4682 16.2515 43.5123 17.9925 42.107 19.3593L41.7556 19.7005C39.5402 21.8552 38.1725 24.6957 37.8903 27.7281C37.5401 31.7578 35.7318 35.537 32.7859 38.3956C31.1771 39.9585 29.267 41.1983 27.1647 42.0442C25.0624 42.89 22.8091 43.3254 20.5334 43.3254C18.2578 43.3254 16.0044 42.89 13.9021 42.0442C11.7998 41.1983 9.88972 39.9585 8.28097 38.3956Z" fill="#22577A"/>
</svg>
