<svg width="51" height="51" viewBox="0 0 51 51" fill="none" xmlns="http://www.w3.org/2000/svg">
<path d="M49.7278 0.0719366C47.0093 0.0502524 43.9016 0.903163 41.4397 2.56194C39.7566 3.69591 38.3555 5.29106 37.763 7.22913C33.2648 2.84253 28.7191 0.864652 24.443 0.737273C23.2894 0.70291 22.1555 0.80268 21.0474 1.02521C15.1381 2.21179 10.1152 6.72423 6.46842 12.2982C2.82168 17.8721 0.521087 24.5446 0.185329 30.3854C0.0174502 33.3059 0.339746 36.0287 1.30491 38.3081C2.21875 40.4659 3.76038 42.2124 5.90104 43.184C8.4267 47.8666 13.2905 50.1059 18.6185 50.3364C24.0757 50.5725 30.1075 48.7964 35.1701 45.45C39.0741 42.8692 42.406 39.3277 44.3672 35.0141C43.771 34.6399 43.1839 34.2507 42.6063 33.8467C40.855 37.8538 37.7664 41.1993 34.0511 43.6552C29.3416 46.7683 23.6573 48.4198 18.7055 48.2053C13.7538 47.9912 9.62924 45.9989 7.5544 41.8665L7.37432 41.508L7.00899 41.362C5.20363 40.6408 3.992 39.3174 3.20347 37.4554C2.41505 35.5935 2.09896 33.1889 2.25292 30.5114C2.56072 25.1562 4.74475 18.7502 8.1861 13.49C11.6274 8.22991 16.2963 4.15211 21.4438 3.1185C22.4091 2.92465 23.3965 2.8321 24.4041 2.85651C27.7827 2.93851 31.3895 4.34691 35.15 7.66245C33.4539 7.47749 31.9013 7.40698 30.4865 7.44229C26.4839 7.54242 23.5506 8.46441 21.3675 9.87021C17.8745 12.1196 16.465 15.5315 15.6089 18.1685L17.5733 18.845C18.3849 16.345 19.5524 13.5549 22.4658 11.6786C25.0591 10.0086 29.1871 9.01848 35.9451 9.91725C36.4954 8.98199 37.1311 8.10633 37.763 7.22913C38.465 7.28576 39.1641 7.37274 39.8576 7.49953C40.3239 6.26365 41.2798 5.21854 42.5738 4.34667C44.6242 2.96505 47.4448 2.18656 49.7118 2.20457L49.7278 0.0719366ZM38.73 9.48842C36.1779 13.1258 35.1846 16.292 35.1894 19.0541C35.1945 21.9437 36.2685 24.4647 37.9802 26.7207C41.0556 30.7743 46.1497 33.7693 50.1534 35.7814C50.4123 31.7768 50.7868 26.0015 49.6722 20.8186C49.0407 17.8821 47.9391 15.2025 46.1364 13.1901C44.4325 11.2881 42.0937 9.94379 38.73 9.48842Z" fill="#22577A"/>
</svg>
