<svg width="51" height="51" viewBox="0 0 51 51" fill="none" xmlns="http://www.w3.org/2000/svg">
<path d="M23.5551 0.0715332L24.8884 2.07458C26.0126 3.76466 26.6853 5.45714 27.0888 7.10629C30.1349 7.41534 33.0672 8.43172 35.6529 10.0747C37.3537 9.48009 39.4845 9.35972 41.4999 9.77622C44.3298 10.3637 47.323 12.0826 49.0622 15.5783C50.1769 17.8173 50.5036 20.9712 50.4147 24.125C50.2893 27.581 49.767 31.0111 48.858 34.3473C47.95 37.701 46.6384 40.9728 44.9352 43.4645C43.2872 45.8721 40.8874 48.0918 37.7092 48.0918H33.1713C32.6188 48.6166 31.9174 49.0933 31.0045 49.4689C29.5752 50.0563 27.7278 50.3572 25.2992 50.3572C22.8705 50.3572 21.0231 50.0563 19.5938 49.4689C18.7927 49.1483 18.0579 48.6813 17.427 48.0918H11.7649C8.7188 48.0918 6.53035 45.665 5.12263 43.3634C3.60921 40.8885 2.41529 37.6408 1.57931 34.3015C0.741941 30.9662 0.263565 27.5505 0.15237 24.113C0.0803029 20.9687 0.404607 17.8173 1.52165 15.5783C3.26089 12.0802 6.2589 10.3637 9.09356 9.77622C11.1114 9.35972 13.2471 9.48009 14.9502 10.0747C17.1455 8.6855 19.5903 7.7393 22.1474 7.28926C21.8416 6.39028 21.4192 5.53551 20.891 4.74692L19.5578 2.74387L23.5551 0.0715332ZM22.8681 12.0489C20.1703 12.5232 18.2029 13.6908 17.081 14.4299C15.3875 18.7466 15.4235 25.1024 16.394 31.2007C16.8913 34.3304 17.6143 37.258 18.3831 39.6101C19.1854 42.0561 19.9469 43.5994 20.4106 44.182L20.4754 44.2638L20.5331 44.3505C20.6604 44.5431 20.8574 44.7839 21.4195 45.015C22.0585 45.2774 23.2212 45.5422 25.3016 45.5422C27.3819 45.5422 28.5446 45.2774 29.1836 45.0126C29.7457 44.7839 29.9403 44.5431 30.07 44.3505L30.1253 44.2638L30.1925 44.182C30.6562 43.5994 31.4177 42.0561 32.2176 39.6077C32.9864 37.258 33.7094 34.328 34.2091 31.2007C35.1796 25.1024 35.2157 18.7466 33.5197 14.4299C32.3906 13.6836 30.4039 12.5063 27.6774 12.0393C27.6918 12.7391 27.6974 13.4172 27.6942 14.0736V16.6521H22.8897V14.2446C22.8897 13.4814 22.8897 12.7519 22.8657 12.0489M38.5668 14.3601C40.1259 19.6952 39.852 26.2918 38.9512 31.959C38.4672 35.0606 37.742 38.1194 36.7819 41.1076C36.5369 41.8635 36.2782 42.5858 36.006 43.2743H37.7068C38.4755 43.2743 39.6214 42.7158 40.969 40.744C42.2615 38.8542 43.3905 36.1409 44.2193 33.0882C45.0283 30.118 45.4942 27.0645 45.6078 23.9878C45.6919 21.0602 45.3363 18.8838 44.7598 17.7282C43.7917 15.783 42.1822 14.8368 40.5246 14.4925C39.881 14.36 39.2223 14.3138 38.5668 14.3601ZM12.0315 14.3649C11.3721 14.3175 10.7092 14.3613 10.0617 14.4949C8.3969 14.8392 6.78259 15.7878 5.81688 17.7282C5.24034 18.8887 4.88481 21.065 4.95207 24.0022C5.02174 26.8455 5.47576 30.086 6.23968 33.1339C7.006 36.2035 8.04858 38.9408 9.21607 40.8476C10.4869 42.9253 11.4261 43.2792 11.7625 43.2792H14.5923C14.3122 42.5648 14.0534 41.8422 13.8164 41.1124C12.8562 38.1235 12.1309 35.0638 11.6472 31.9614C10.7439 26.2942 10.4724 19.6976 12.0315 14.3649Z" fill="#22577A"/>
</svg>
