<svg width="33" height="36" viewBox="0 0 33 36" fill="none" xmlns="http://www.w3.org/2000/svg">
<path d="M17.0216 35.0075L17.003 35.0109L16.8833 35.0699L16.8495 35.0767L16.8259 35.0699L16.7062 35.0109C16.6882 35.0053 16.6747 35.0081 16.6657 35.0193L16.659 35.0362L16.6303 35.758L16.6387 35.7917L16.6556 35.8136L16.831 35.9384L16.8563 35.9452L16.8765 35.9384L17.0519 35.8136L17.0722 35.7867L17.0789 35.758L17.0502 35.0379C17.0457 35.0199 17.0362 35.0098 17.0216 35.0075ZM17.4685 34.8169L17.4465 34.8203L17.1346 34.9772L17.1177 34.994L17.1126 35.0126L17.143 35.7378L17.1514 35.758L17.1649 35.7698L17.5039 35.9266C17.5253 35.9323 17.5416 35.9278 17.5528 35.9131L17.5595 35.8895L17.5022 34.854C17.4966 34.8338 17.4853 34.8214 17.4685 34.8169ZM16.2627 34.8203C16.2552 34.8158 16.2463 34.8143 16.2379 34.8162C16.2294 34.8181 16.2219 34.8232 16.2171 34.8304L16.207 34.854L16.1497 35.8895C16.1508 35.9098 16.1603 35.9233 16.1783 35.93L16.2036 35.9266L16.5426 35.7698L16.5595 35.7563L16.5662 35.7378L16.5949 35.0126L16.5898 34.9923L16.573 34.9755L16.2627 34.8203Z" fill="#22577A"/>
<path d="M13.4917 29.5131C13.4917 30.1841 13.7582 30.8275 14.2327 31.3019C14.7071 31.7763 15.3505 32.0428 16.0214 32.0428C16.6923 32.0428 17.3358 31.7763 17.8102 31.3019C18.2846 30.8275 18.5511 30.1841 18.5511 29.5131V18.5511H29.5131C30.1841 18.5511 30.8275 18.2846 31.3019 17.8102C31.7763 17.3358 32.0428 16.6923 32.0428 16.0214C32.0428 15.3505 31.7763 14.7071 31.3019 14.2327C30.8275 13.7582 30.1841 13.4917 29.5131 13.4917H18.5511V2.5297C18.5511 1.85878 18.2846 1.21534 17.8102 0.740931C17.3358 0.266521 16.6923 0 16.0214 0C15.3505 0 14.7071 0.266521 14.2327 0.740931C13.7582 1.21534 13.4917 1.85878 13.4917 2.5297V13.4917H2.5297C1.85878 13.4917 1.21534 13.7582 0.740931 14.2327C0.266521 14.7071 0 15.3505 0 16.0214C0 16.6923 0.266521 17.3358 0.740931 17.8102C1.21534 18.2846 1.85878 18.5511 2.5297 18.5511H13.4917V29.5131Z" fill="#22577A"/>
</svg>
