<svg width="52" height="51" viewBox="0 0 52 51" fill="none" xmlns="http://www.w3.org/2000/svg">
<path d="M49.6719 11.4548H41.7207L48.78 4.39719C48.9198 4.26692 49.032 4.10983 49.1098 3.93529C49.1876 3.76075 49.2294 3.57233 49.2328 3.38127C49.2361 3.19022 49.201 3.00044 49.1294 2.82326C49.0578 2.64608 48.9513 2.48514 48.8161 2.35002C48.681 2.2149 48.52 2.10838 48.3428 2.03682C48.1656 1.96525 47.9757 1.93011 47.7846 1.93348C47.5935 1.93685 47.4051 1.97867 47.2305 2.05644C47.0559 2.13421 46.8988 2.24634 46.7685 2.38614L39.7092 9.44379V1.49445C39.7092 1.11707 39.5592 0.755142 39.2923 0.488295C39.0254 0.221447 38.6634 0.0715332 38.2859 0.0715332C37.9085 0.0715332 37.5464 0.221447 37.2795 0.488295C37.0126 0.755142 36.8627 1.11707 36.8627 1.49445V10.0675C34.0366 8.2163 30.6592 7.39436 27.2983 7.73987C23.9374 8.08539 20.798 9.57728 18.4079 11.9647C8.91245 21.2729 1.76774 43.5771 1.1344 45.6047C0.837999 46.2244 0.741128 46.9207 0.857135 47.5977C0.973143 48.2747 1.29632 48.8991 1.78212 49.3848C2.26793 49.8705 2.89245 50.1936 3.56962 50.3096C4.24679 50.4256 4.94327 50.3287 5.56307 50.0324C7.57934 49.3992 29.9054 42.2514 39.1968 32.7748C41.5871 30.3847 43.0808 27.2442 43.4265 23.882C43.7721 20.5198 42.9486 17.1412 41.0945 14.3149H49.6719C50.0494 14.3149 50.4114 14.165 50.6783 13.8981C50.9452 13.6313 51.0952 13.2694 51.0952 12.892C51.0952 12.5146 50.9452 12.1527 50.6783 11.8858C50.4114 11.619 50.0494 11.4691 49.6719 11.4691V11.4548ZM37.1734 30.7614C34.965 33.0357 31.8813 35.1701 28.4869 37.1242L22.2103 30.8468C21.9433 30.5798 21.5811 30.4298 21.2034 30.4298C20.8257 30.4298 20.4635 30.5798 20.1964 30.8468C19.9294 31.1138 19.7793 31.4759 19.7793 31.8535C19.7793 32.2311 19.9294 32.5932 20.1964 32.8602L25.8894 38.5518C16.0002 43.7692 4.77791 47.2838 4.60475 47.3265C4.51807 47.3539 4.43394 47.3888 4.35331 47.4308C4.26375 47.4778 4.16151 47.4949 4.06154 47.4796C3.96156 47.4644 3.86907 47.4176 3.79756 47.3461C3.72605 47.2746 3.67926 47.1822 3.66402 47.0822C3.64878 46.9823 3.66589 46.8801 3.71285 46.7905C3.75495 46.7146 3.79066 46.6352 3.81959 46.5534C3.89076 46.3162 10.663 24.669 19.4231 15.0121L27.7895 23.3741C27.9198 23.5139 28.0769 23.626 28.2515 23.7038C28.4261 23.7816 28.6145 23.8234 28.8056 23.8268C28.9967 23.8301 29.1865 23.795 29.3638 23.7234C29.541 23.6519 29.702 23.5453 29.8371 23.4102C29.9723 23.2751 30.0788 23.1142 30.1504 22.937C30.222 22.7598 30.2571 22.57 30.2538 22.379C30.2504 22.1879 30.2086 21.9995 30.1308 21.825C30.053 21.6504 29.9408 21.4933 29.801 21.3631L21.475 13.039C23.8535 11.1695 26.8568 10.2794 29.8702 10.551C32.8836 10.8225 35.6792 12.2352 37.685 14.4999C39.6908 16.7646 40.755 19.71 40.6599 22.7334C40.5648 25.7568 39.3176 28.6296 37.1734 30.7638V30.7614Z" fill="#22577A"/>
</svg>
