<svg width="315" height="70" viewBox="0 0 315 70" fill="none" xmlns="http://www.w3.org/2000/svg">
<path d="M17.9266 28.9185V58.0097C17.9266 62.7002 21.729 66.5026 26.4195 66.5026H65.7751C70.4656 66.5026 74.268 62.7002 74.268 58.0097V29.1225C74.268 26.4121 72.9744 23.8646 70.7861 22.2654L50.1872 7.21234C47.1047 4.95976 42.898 5.04088 39.9046 7.41061L21.1479 22.2597C19.1132 23.8705 17.9266 26.3233 17.9266 28.9185Z" stroke="white" stroke-width="3.63493" stroke-linejoin="round"/>
<path fill-rule="evenodd" clip-rule="evenodd" d="M34.7405 37.2213C34.7405 37.9797 34.1116 38.6086 33.3533 38.6086C32.5949 38.6086 31.966 37.9797 31.966 37.2213C31.966 28.7684 38.4768 21.7953 46.7632 21.0924V19.6497C46.7632 18.8913 47.3921 18.2625 48.1504 18.2625C48.9088 18.2625 49.5377 18.8913 49.5377 19.6497V21.0924C57.8241 21.7953 64.3349 28.7684 64.3349 37.2213C64.3349 37.9797 63.706 38.6086 62.9476 38.6086C62.1893 38.6086 61.5604 37.9797 61.5604 37.2213C61.5604 29.8227 55.549 23.8114 48.1504 23.8114C40.7519 23.8114 34.7405 29.8227 34.7405 37.2213ZM31.5018 40.4582H64.7214C65.4798 40.4582 66.1087 41.0871 66.1087 41.8455C66.1087 42.6038 65.4798 43.2327 64.7214 43.2327H61.6325L56.8419 48.5042C54.7333 50.7977 53.6236 52 52.1068 52.7214C50.5716 53.4612 48.907 53.5722 45.8735 53.7572L39.8622 54.1456C38.6229 54.2196 38.0495 54.2751 37.6611 54.4416C37.2912 54.608 36.9212 54.978 35.9964 55.9028L34.2762 57.623C33.9988 57.9004 33.6474 58.0299 33.2959 58.0299C32.9445 58.0299 32.5931 57.9004 32.3156 57.623C32.0576 57.3619 31.9129 57.0097 31.9129 56.6426C31.9129 56.2756 32.0576 55.9234 32.3156 55.6623L34.0358 53.9422C35.0531 52.9248 35.6635 52.3145 36.5328 51.926C37.3837 51.5376 38.253 51.4636 39.7142 51.3896L45.7256 51.0012L46.0437 50.979C48.6073 50.8088 49.928 50.7201 50.9416 50.2244C51.9626 49.749 52.8578 48.7724 54.6224 46.8469L54.6964 46.7655L57.9147 43.2327H55.1588L52.2548 46.1366C52.15 46.2353 52.0625 46.3191 51.9922 46.3882C51.8996 46.4821 51.802 46.571 51.6999 46.6545C50.9231 47.3389 49.9243 47.7643 48.833 47.8383C48.7035 47.8568 48.5 47.8568 48.1116 47.8568H41.6378C40.8795 47.8568 40.2506 47.2279 40.2506 46.4696C40.2506 45.7112 40.8795 45.0823 41.6378 45.0823H46.6874C46.5024 44.176 45.7995 43.4732 44.8747 43.2882C44.6528 43.2327 44.2273 43.2327 43.506 43.2327H42.0633C40.2691 43.2327 39.3628 43.2327 38.6229 43.4177C38.031 43.5471 37.5131 43.7691 37.0692 44.0465C36.3848 44.4535 35.756 45.0823 34.4797 46.3586L28.7828 52.074C28.2464 52.6104 27.3586 52.6104 26.8222 52.074C26.5642 51.813 26.4195 51.4607 26.4195 51.0937C26.4195 50.7267 26.5642 50.3744 26.8222 50.1134L32.5191 44.4165C32.9815 43.9541 33.3699 43.5656 33.7214 43.2327H31.5018C30.7434 43.2327 30.1145 42.6038 30.1145 41.8455C30.1145 41.0871 30.7434 40.4582 31.5018 40.4582ZM50.1925 44.2981L50.3127 44.176L51.256 43.2327H48.9624C49.1659 43.6396 49.3324 44.0835 49.4249 44.5459C49.4619 44.6384 49.4803 44.7494 49.4803 44.8419C49.6468 44.7494 49.7948 44.6569 49.9428 44.5274C50.0328 44.4588 50.1164 44.382 50.1925 44.2981Z" fill="white"/>
<path d="M118.484 21.778C117.541 21.1493 116.303 21.0707 114.77 21.5422C113.277 22.0137 111.686 22.8978 109.997 24.1944C108.346 25.4517 106.716 27.0431 105.105 28.9683C103.533 30.8936 102.177 32.9761 101.038 35.2157C99.0734 39.1056 98.0912 42.3472 98.0912 44.9404C98.0912 47.4944 98.7788 49.2821 100.154 50.3037C101.529 51.286 103.454 51.4235 105.93 50.7163C108.405 49.9698 111.136 48.2409 114.122 45.5298C114.869 44.8618 115.576 44.2135 116.244 43.5849C116.951 42.9562 117.619 42.4061 118.248 41.9346C118.876 41.4238 119.466 41.0309 120.016 40.7559C120.605 40.4415 121.155 40.2844 121.666 40.2844C122.177 40.2844 122.668 40.4022 123.14 40.638C123.611 40.8737 124.043 41.1881 124.436 41.581C124.829 41.9346 125.143 42.3668 125.379 42.8776C125.654 43.3884 125.811 43.9188 125.851 44.4689C125.929 45.2548 125.792 46.0406 125.438 46.8264C125.124 47.573 124.652 48.2999 124.024 49.0071C123.434 49.7144 122.707 50.402 121.843 51.0699C120.979 51.7379 120.036 52.3665 119.014 52.9559C117.01 54.1347 114.908 55.1366 112.708 55.9617C110.547 56.7476 108.405 57.2977 106.283 57.612C104.162 57.887 102.119 57.887 100.154 57.612C98.1894 57.2977 96.4409 56.6297 94.9085 55.6081C93.3762 54.5472 92.0992 53.0934 91.0776 51.2467C90.056 49.3607 89.4077 47.0032 89.1327 44.1742C88.8969 41.7774 89.113 39.361 89.781 36.9249C90.4882 34.4495 91.5098 32.092 92.8457 29.8524C94.1816 27.5735 95.7729 25.4517 97.6197 23.4872C99.4664 21.4833 101.451 19.7544 103.572 18.3007C105.733 16.8469 107.953 15.7074 110.232 14.8823C112.511 14.0179 114.731 13.5857 116.892 13.5857C117.717 13.5857 118.621 13.6642 119.603 13.8214C120.586 13.9786 121.489 14.2733 122.314 14.7055C123.179 15.0984 123.906 15.6485 124.495 16.3557C125.124 17.063 125.497 17.9667 125.615 19.0668C125.733 20.1277 125.556 21.1493 125.085 22.1316C124.456 23.0746 124.004 24.0569 123.729 25.0785C123.454 26.0608 123.257 27.0627 123.14 28.0843C123.061 29.0666 123.022 30.0489 123.022 31.0312C123.061 31.9742 123.081 32.8975 123.081 33.8012C122.884 34.7442 122.393 35.4515 121.607 35.923C120.821 36.3945 119.977 36.6106 119.073 36.5713C118.208 36.532 117.403 36.257 116.656 35.7462C115.949 35.1961 115.537 34.4102 115.419 33.3887C115.379 32.9565 115.438 32.2296 115.596 31.208C115.792 30.1864 116.028 29.0862 116.303 27.9075C116.617 26.6894 116.971 25.5303 117.364 24.4302C117.757 23.2907 118.13 22.4066 118.484 21.778ZM147.938 36.2177C147.938 37.6715 147.801 39.2628 147.525 40.9916C147.25 42.6811 146.759 44.2725 146.052 45.7655C145.345 47.2586 144.382 48.516 143.164 49.5375C141.946 50.5198 140.414 51.011 138.567 51.011C136.838 51.011 135.345 50.5984 134.088 49.7733C132.83 48.9482 131.789 47.9069 130.964 46.6496C130.178 45.353 129.589 43.9385 129.196 42.4061C128.842 40.8344 128.665 39.3217 128.665 37.8679C128.665 36.2962 128.842 34.7246 129.196 33.1529C129.55 31.542 130.1 30.0882 130.846 28.7915C131.632 27.4556 132.634 26.3554 133.852 25.491C135.07 24.5873 136.524 24.0176 138.213 23.7818C140.217 23.5461 141.848 23.7622 143.105 24.4302C144.402 25.0981 145.404 26.0608 146.111 27.3181C146.818 28.5361 147.29 29.9506 147.525 31.5616C147.801 33.1333 147.938 34.6853 147.938 36.2177ZM141.632 36.1587C141.632 35.8444 141.612 35.3729 141.573 34.7442C141.533 34.0763 141.455 33.428 141.337 32.7993C141.219 32.1313 141.042 31.5616 140.807 31.0901C140.571 30.6186 140.237 30.3828 139.805 30.3828C139.137 30.3828 138.587 30.7168 138.154 31.3848C137.722 32.0527 137.408 32.8975 137.211 33.9191C137.015 34.9014 136.917 35.9819 136.917 37.1607C136.917 38.3001 136.995 39.3806 137.152 40.4022C137.31 41.3845 137.545 42.2096 137.86 42.8776C138.213 43.5456 138.626 43.8795 139.097 43.8795C139.608 43.8795 140.021 43.5652 140.335 42.9365C140.689 42.2686 140.944 41.5024 141.101 40.638C141.298 39.7736 141.435 38.9288 141.514 38.1037C141.592 37.2392 141.632 36.5909 141.632 36.1587ZM162.496 43.8206C164.617 43.6241 166.759 43.408 168.92 43.1723C171.081 42.8972 173.222 42.7597 175.344 42.7597C175.933 42.7597 176.601 42.8383 177.348 42.9955C178.134 43.1134 178.841 43.3295 179.47 43.6438C180.138 43.9581 180.688 44.3707 181.12 44.8815C181.591 45.3923 181.827 46.0209 181.827 46.7675C181.827 47.6319 181.611 48.3391 181.179 48.8892C180.786 49.4393 180.275 49.8715 179.646 50.1859C179.018 50.5002 178.311 50.7163 177.525 50.8342C176.739 50.952 175.992 51.011 175.285 51.011C174.106 51.011 172.928 50.952 171.749 50.8342C170.57 50.677 169.411 50.5984 168.271 50.5984C166.857 50.5984 165.423 50.7556 163.969 51.0699C162.555 51.345 161.199 51.6593 159.902 52.0129C158.606 52.3273 157.427 52.6416 156.366 52.9559C155.345 53.231 154.539 53.3685 153.95 53.3685C153.046 53.3685 152.28 53.0345 151.651 52.3665C151.062 51.6986 150.767 50.9324 150.767 50.068C150.767 49.1643 151.199 47.9855 152.064 46.5317C152.967 45.0779 154.087 43.5063 155.423 41.8167C156.759 40.0879 158.213 38.3198 159.784 36.5124C161.395 34.6656 162.908 32.9172 164.323 31.2669C165.776 29.6167 167.034 28.1236 168.095 26.7877C169.195 25.4517 169.902 24.4105 170.216 23.664C169.784 23.8211 169.136 24.0962 168.271 24.4891C167.446 24.8427 166.503 25.2553 165.442 25.7268C164.421 26.159 163.321 26.6305 162.142 27.1413C161.003 27.6128 159.902 28.0646 158.841 28.4968C157.82 28.8898 156.897 29.2237 156.071 29.4988C155.246 29.7345 154.637 29.8524 154.244 29.8524C153.223 29.8524 152.319 29.656 151.533 29.263C150.747 28.8701 150.354 28.0843 150.354 26.9055C150.354 26.2769 150.492 25.7464 150.767 25.3142C151.081 24.8427 151.533 24.5087 152.123 24.3123C152.516 24.1551 153.4 23.8211 154.775 23.3103C156.15 22.7603 157.761 22.1512 159.608 21.4833C161.454 20.8153 163.399 20.1081 165.442 19.3615C167.486 18.615 169.391 17.9274 171.159 17.2987C172.928 16.67 174.44 16.1593 175.698 15.7663C176.955 15.3341 177.701 15.118 177.937 15.118C178.487 15.118 178.998 15.2359 179.47 15.4717C179.98 15.7074 180.432 16.0217 180.825 16.4147C181.218 16.8076 181.513 17.2594 181.709 17.7702C181.945 18.281 182.063 18.8311 182.063 19.4205C182.063 19.892 181.65 20.7564 180.825 22.0137C180 23.2318 178.939 24.6463 177.643 26.2572C176.385 27.8682 174.971 29.597 173.399 31.4437C171.867 33.2511 170.374 34.98 168.92 36.6302C167.466 38.2805 166.15 39.7539 164.971 41.0505C163.832 42.3472 163.006 43.2705 162.496 43.8206ZM185.831 29.9703C185.91 29.263 186.204 28.6344 186.715 28.0843C187.226 27.4949 187.835 27.0431 188.542 26.7287C189.25 26.4144 189.996 26.2376 190.782 26.1983C191.568 26.1197 192.255 26.2376 192.845 26.5519C193.473 26.8269 193.965 27.2984 194.318 27.9664C194.672 28.6344 194.77 29.5184 194.613 30.6186C194.495 31.6795 194.397 32.8386 194.318 34.0959C194.24 35.3532 194.181 36.6106 194.141 37.8679C194.102 39.1252 194.082 40.3433 194.082 41.522C194.082 42.6615 194.102 43.6831 194.141 44.5868C194.22 45.687 194.2 46.571 194.082 47.239C194.004 47.8676 193.827 48.3588 193.552 48.7124C193.277 49.066 192.904 49.3214 192.432 49.4786C192 49.5965 191.47 49.6751 190.841 49.7144C189.937 49.8322 189.073 49.4786 188.248 48.6535C187.462 47.7891 186.912 46.6889 186.597 45.353C186.244 44.1349 185.969 42.7794 185.772 41.2863C185.576 39.7539 185.438 38.2608 185.36 36.807C185.32 35.3532 185.34 34.0173 185.419 32.7993C185.497 31.5812 185.635 30.6382 185.831 29.9703ZM190.487 23.7818C189.348 23.7033 188.424 23.2514 187.717 22.4263C187.01 21.5619 186.696 20.501 186.774 19.2437C186.931 17.9077 187.403 16.8272 188.189 16.0021C189.014 15.1377 190.035 14.7644 191.253 14.8823C192.393 15.0394 193.375 15.5502 194.2 16.4147C195.025 17.2398 195.359 18.3007 195.202 19.5973C195.124 20.2259 194.947 20.8153 194.672 21.3654C194.397 21.8762 194.043 22.3281 193.611 22.721C193.179 23.1139 192.688 23.4086 192.137 23.605C191.587 23.8015 191.037 23.8604 190.487 23.7818ZM200.788 48.9482C200.081 48.9482 199.432 48.7321 198.843 48.2999C198.254 47.8676 197.959 47.2586 197.959 46.4728C197.959 45.3726 197.998 44.2921 198.077 43.2312C198.195 42.1311 198.313 41.0505 198.43 39.9897C198.47 39.636 198.509 39.027 198.548 38.1626C198.588 37.2982 198.607 36.3355 198.607 35.2747C198.607 34.1745 198.588 33.0743 198.548 31.9742C198.509 30.8347 198.43 29.8524 198.313 29.0273C198.195 28.1629 198.411 27.3377 198.961 26.5519C199.511 25.7661 200.159 25.216 200.906 24.9017C201.692 24.548 202.438 24.548 203.145 24.9017C203.892 25.216 204.363 26.0215 204.56 27.3181C204.639 27.9861 204.697 28.654 204.737 29.322C204.776 29.9899 204.835 30.54 204.914 30.9722C205.306 30.5007 205.778 29.9113 206.328 29.2041C206.917 28.4968 207.526 27.8289 208.155 27.2002C208.823 26.5323 209.511 25.9822 210.218 25.55C210.925 25.0785 211.613 24.8427 212.281 24.8427C213.538 24.8427 214.619 25.1374 215.522 25.7268C216.465 26.3162 217.133 27.2592 217.526 28.5558C217.88 29.7345 218.076 31.0901 218.116 32.6225C218.155 34.1156 218.135 35.6086 218.057 37.1017C217.978 38.5948 217.86 39.9897 217.703 41.2863C217.585 42.5436 217.526 43.5259 217.526 44.2332C217.526 44.744 217.546 45.1958 217.585 45.5887C217.664 45.9424 217.742 46.2763 217.821 46.5907C217.939 46.905 218.017 47.2193 218.057 47.5337C218.135 47.848 218.175 48.2016 218.175 48.5945C218.175 49.5375 217.801 50.2644 217.055 50.7752C216.347 51.2467 215.581 51.4825 214.756 51.4825C212.988 51.4825 211.711 50.7752 210.925 49.3607C210.139 47.9069 209.746 45.8638 209.746 43.2312C209.746 42.524 209.786 41.7381 209.864 40.8737C209.943 40.0093 210.041 39.1252 210.159 38.2215C210.513 35.4711 210.552 33.6441 210.277 32.7403C210.002 31.7973 209.511 31.817 208.803 32.7993C207.664 34.4102 206.76 36.1784 206.092 38.1037C205.464 40.029 204.992 41.9346 204.678 43.8206C204.442 45.2744 204.049 46.4924 203.499 47.4747C202.949 48.457 202.045 48.9482 200.788 48.9482ZM232.069 34.6853C231.519 34.921 231.086 35.7855 230.772 37.2785C230.497 38.7323 230.438 40.7559 230.595 43.3491C230.713 45.0779 230.32 46.3746 229.416 47.239C228.552 48.1034 227.57 48.5356 226.47 48.5356C225.644 48.5356 224.918 48.2409 224.289 47.6515C223.66 47.0622 223.13 46.296 222.698 45.353C222.265 44.41 221.912 43.3687 221.637 42.2293C221.362 41.0505 221.146 39.8914 220.988 38.752C220.831 37.5732 220.713 36.4927 220.635 35.5104C220.595 34.5281 220.576 33.7226 220.576 33.094C220.576 32.151 220.615 31.0312 220.694 29.7345C220.772 28.4379 220.91 27.0823 221.106 25.6678C221.342 24.2533 221.656 22.8585 222.049 21.4833C222.481 20.0688 223.012 18.8114 223.641 17.7113C224.308 16.6111 225.114 15.727 226.057 15.0591C227 14.3518 228.12 13.9982 229.416 13.9982C229.927 13.9982 230.399 14.1161 230.831 14.3518C231.302 14.5483 231.715 14.843 232.069 15.2359C232.422 15.5895 232.697 16.0021 232.894 16.4736C233.09 16.9451 233.188 17.4362 233.188 17.947C233.188 18.615 232.972 19.4008 232.54 20.3045C232.147 21.1689 231.695 22.1512 231.185 23.2514C230.713 24.3516 230.261 25.55 229.829 26.8466C229.397 28.1432 229.161 29.5381 229.122 31.0312C229.868 30.4811 230.576 30.0096 231.243 29.6167C231.951 29.1845 232.795 28.9683 233.778 28.9683C235.428 28.9683 236.725 29.3613 237.668 30.1471C238.611 30.9329 239.298 31.9152 239.73 33.094C240.202 34.2727 240.477 35.5497 240.556 36.9249C240.673 38.3001 240.732 39.5771 240.732 40.7559C240.732 41.8167 240.909 42.799 241.263 43.7027C241.656 44.6064 241.852 45.5101 241.852 46.4139C241.852 47.3961 241.44 48.2213 240.615 48.8892C239.829 49.5572 238.964 49.8912 238.021 49.8912C236.96 49.8912 236.096 49.6751 235.428 49.2429C234.799 48.7714 234.289 48.1623 233.896 47.4158C233.542 46.6693 233.306 45.8245 233.188 44.8815C233.071 43.9385 233.012 42.9562 233.012 41.9346C233.012 40.4808 233.071 39.1252 233.188 37.8679C233.188 37.5929 233.208 37.2392 233.247 36.807C233.326 36.3748 233.346 35.9623 233.306 35.5693C233.267 35.1764 233.149 34.8817 232.953 34.6853C232.795 34.4888 232.501 34.4888 232.069 34.6853ZM262.931 43.8795L254.562 45.353C254.483 45.9424 254.405 46.63 254.326 47.4158C254.248 48.1623 254.11 48.8696 253.914 49.5375C253.717 50.1662 253.403 50.7163 252.971 51.1878C252.578 51.62 251.988 51.8361 251.203 51.8361C250.377 51.8361 249.729 51.6789 249.258 51.3646C248.825 51.011 248.491 50.5591 248.256 50.009C248.059 49.459 247.922 48.8303 247.843 48.123C247.804 47.4158 247.745 46.6889 247.666 45.9424C247.156 45.9424 246.664 45.9227 246.193 45.8834C245.721 45.8048 245.289 45.6673 244.896 45.4709C244.543 45.2744 244.248 44.9797 244.012 44.5868C243.816 44.1939 243.717 43.6438 243.717 42.9365C243.717 42.1507 243.973 41.5417 244.484 41.1095C245.034 40.6773 245.643 40.304 246.311 39.9897C246.979 39.6753 247.607 39.3217 248.197 38.9288C248.825 38.5359 249.238 37.9858 249.434 37.2785C249.749 36.1391 250.181 34.7835 250.731 33.2118C251.32 31.6402 251.988 30.0096 252.735 28.32C253.481 26.5912 254.326 24.9017 255.269 23.2514C256.212 21.5619 257.234 20.0688 258.334 18.7722C259.473 17.4362 260.652 16.3557 261.87 15.5306C263.128 14.7055 264.444 14.2929 265.819 14.2929C267.312 14.2929 268.53 14.6662 269.473 15.4127C270.416 16.1593 271.143 17.1219 271.654 18.3007C272.204 19.4794 272.577 20.835 272.774 22.3673C272.97 23.8604 273.068 25.3732 273.068 26.9055C273.108 28.4379 273.088 29.9113 273.009 31.3258C272.97 32.7403 272.951 33.9584 272.951 34.98C272.951 35.5301 273.029 35.9623 273.186 36.2766C273.383 36.5909 273.579 36.866 273.776 37.1017C273.972 37.3375 274.149 37.5732 274.306 37.809C274.503 38.0054 274.601 38.2608 274.601 38.5752C274.601 38.8895 274.503 39.1842 274.306 39.4592C274.149 39.695 273.972 39.97 273.776 40.2844C273.579 40.5594 273.383 40.8934 273.186 41.2863C273.029 41.6399 272.951 42.0918 272.951 42.6419C272.951 43.6634 273.029 44.6654 273.186 45.6477C273.343 46.63 273.52 47.6319 273.717 48.6535C273.952 49.6358 274.149 50.6181 274.306 51.6004C274.463 52.5434 274.542 53.4864 274.542 54.4294C274.542 55.8439 274.031 56.9637 273.009 57.7888C272.027 58.5746 270.907 58.9675 269.65 58.9675C268.275 58.9675 267.175 58.7122 266.35 58.2014C265.564 57.6513 264.955 56.9637 264.522 56.1385C264.09 55.2741 263.796 54.3115 263.638 53.2506C263.481 52.1504 263.383 51.0503 263.344 49.9501C263.304 48.8106 263.265 47.7105 263.226 46.6496C263.187 45.5887 263.088 44.6654 262.931 43.8795ZM263.344 37.3375C263.304 36.0409 263.324 34.7639 263.403 33.5065C263.521 32.2099 263.619 30.9133 263.697 29.6167C263.815 28.0843 263.756 27.0038 263.521 26.3751C263.285 25.7071 262.97 25.4124 262.578 25.491C262.185 25.5303 261.713 25.8643 261.163 26.493C260.652 27.1216 260.161 27.9468 259.69 28.9683C258.943 30.54 258.295 32.1706 257.745 33.8602C257.195 35.5497 256.821 36.9446 256.625 38.0447L263.344 37.3375ZM278.209 29.9703C278.287 29.263 278.582 28.6344 279.093 28.0843C279.604 27.4949 280.213 27.0431 280.92 26.7287C281.627 26.4144 282.374 26.2376 283.16 26.1983C283.945 26.1197 284.633 26.2376 285.222 26.5519C285.851 26.8269 286.342 27.2984 286.696 27.9664C287.049 28.6344 287.148 29.5184 286.991 30.6186C286.873 31.6795 286.774 32.8386 286.696 34.0959C286.617 35.3532 286.558 36.6106 286.519 37.8679C286.48 39.1252 286.46 40.3433 286.46 41.522C286.46 42.6615 286.48 43.6831 286.519 44.5868C286.598 45.687 286.578 46.571 286.46 47.239C286.382 47.8676 286.205 48.3588 285.93 48.7124C285.655 49.066 285.281 49.3214 284.81 49.4786C284.378 49.5965 283.847 49.6751 283.219 49.7144C282.315 49.8322 281.45 49.4786 280.625 48.6535C279.839 47.7891 279.289 46.6889 278.975 45.353C278.621 44.1349 278.346 42.7794 278.15 41.2863C277.953 39.7539 277.816 38.2608 277.737 36.807C277.698 35.3532 277.718 34.0173 277.796 32.7993C277.875 31.5812 278.012 30.6382 278.209 29.9703ZM282.865 23.7818C281.725 23.7033 280.802 23.2514 280.095 22.4263C279.388 21.5619 279.073 20.501 279.152 19.2437C279.309 17.9077 279.781 16.8272 280.566 16.0021C281.391 15.1377 282.413 14.7644 283.631 14.8823C284.771 15.0394 285.753 15.5502 286.578 16.4147C287.403 17.2398 287.737 18.3007 287.58 19.5973C287.501 20.2259 287.325 20.8153 287.049 21.3654C286.774 21.8762 286.421 22.3281 285.989 22.721C285.556 23.1139 285.065 23.4086 284.515 23.605C283.965 23.8015 283.415 23.8604 282.865 23.7818Z" fill="white"/>
</svg>
