<svg width="176" height="40" viewBox="0 0 176 40" fill="none" xmlns="http://www.w3.org/2000/svg">
<path d="M8.86517 16.1671V32.6313C8.86517 35.2859 11.0172 37.4379 13.6718 37.4379H35.9452C38.5998 37.4379 40.7518 35.2859 40.7518 32.6313V16.2825C40.7518 14.7486 40.0197 13.3068 38.7812 12.4017L27.1232 3.88238C25.3786 2.60752 22.9978 2.65343 21.3037 3.99459L10.6883 12.3985C9.53672 13.3101 8.86517 14.6983 8.86517 16.1671Z" stroke="#22577A" stroke-width="2.0572" stroke-linejoin="round"/>
<path fill-rule="evenodd" clip-rule="evenodd" d="M18.3811 20.8663C18.3811 21.2955 18.0252 21.6514 17.596 21.6514C17.1668 21.6514 16.8109 21.2955 16.8109 20.8663C16.8109 16.0824 20.4957 12.1359 25.1854 11.7381V10.9216C25.1854 10.4924 25.5413 10.1365 25.9705 10.1365C26.3997 10.1365 26.7556 10.4924 26.7556 10.9216V11.7381C31.4454 12.1359 35.1302 16.0824 35.1302 20.8663C35.1302 21.2955 34.7742 21.6514 34.345 21.6514C33.9159 21.6514 33.5599 21.2955 33.5599 20.8663C33.5599 16.6791 30.1578 13.2769 25.9705 13.2769C21.7833 13.2769 18.3811 16.6791 18.3811 20.8663ZM16.5481 22.6983H35.3489C35.7781 22.6983 36.1341 23.0542 36.1341 23.4834C36.1341 23.9126 35.7781 24.2685 35.3489 24.2685H33.6008L30.8895 27.2519C29.6961 28.5499 29.0681 29.2304 28.2097 29.6386C27.3408 30.0574 26.3987 30.1202 24.6819 30.2248L21.2798 30.4447C20.5784 30.4866 20.2539 30.518 20.034 30.6122C19.8247 30.7064 19.6153 30.9157 19.0919 31.4392L18.1184 32.4127C17.9613 32.5697 17.7625 32.643 17.5636 32.643C17.3647 32.643 17.1658 32.5697 17.0087 32.4127C16.8627 32.2649 16.7809 32.0656 16.7809 31.8579C16.7809 31.6502 16.8627 31.4508 17.0087 31.3031L17.9823 30.3295C18.558 29.7538 18.9035 29.4083 19.3955 29.1885C19.877 28.9687 20.369 28.9268 21.196 28.8849L24.5982 28.6651L24.7782 28.6525C26.2291 28.5562 26.9765 28.506 27.5502 28.2254C28.128 27.9564 28.6347 27.4037 29.6333 26.3139L29.6752 26.2679L31.4967 24.2685H29.9369L28.2934 25.912C28.2341 25.9678 28.1845 26.0153 28.1448 26.0543C28.0924 26.1075 28.0371 26.1578 27.9794 26.2051C27.5397 26.5924 26.9744 26.8332 26.3568 26.875C26.2835 26.8855 26.1684 26.8855 25.9485 26.8855H22.2847C21.8555 26.8855 21.4996 26.5296 21.4996 26.1004C21.4996 25.6712 21.8555 25.3153 22.2847 25.3153H25.1425C25.0378 24.8024 24.64 24.4046 24.1166 24.2999C23.991 24.2685 23.7502 24.2685 23.342 24.2685H22.5255C21.5101 24.2685 20.9971 24.2685 20.5784 24.3732C20.2434 24.4464 19.9503 24.5721 19.6991 24.7291C19.3117 24.9594 18.9558 25.3153 18.2335 26.0376L15.0093 29.2722C14.7058 29.5758 14.2033 29.5758 13.8997 29.2722C13.7537 29.1245 13.6718 28.9252 13.6718 28.7174C13.6718 28.5097 13.7537 28.3104 13.8997 28.1626L17.1239 24.9384C17.3856 24.6767 17.6054 24.4569 17.8043 24.2685H16.5481C16.119 24.2685 15.763 23.9126 15.763 23.4834C15.763 23.0542 16.119 22.6983 16.5481 22.6983ZM27.1262 24.8714L27.1943 24.8024L27.7281 24.2685H26.4301C26.5452 24.4988 26.6394 24.75 26.6918 25.0117C26.7127 25.0641 26.7232 25.1269 26.7232 25.1792C26.8174 25.1269 26.9011 25.0745 26.9849 25.0012C27.0359 24.9624 27.0832 24.9189 27.1262 24.8714Z" fill="url(#paint0_linear_118_47)"/>
<path d="M65.7756 12.3005C65.2419 11.9447 64.5415 11.9002 63.6742 12.1671C62.8292 12.4339 61.9286 12.9343 60.9724 13.6681C60.0384 14.3797 59.1156 15.2803 58.2038 16.3699C57.3143 17.4596 56.5472 18.6381 55.9023 19.9057C54.7904 22.1071 54.2345 23.9417 54.2345 25.4094C54.2345 26.8548 54.6236 27.8666 55.4019 28.4448C56.1802 29.0007 57.2699 29.0785 58.6708 28.6783C60.0718 28.2558 61.6173 27.2773 63.3073 25.7429C63.7298 25.3649 64.1301 24.998 64.5081 24.6422C64.9084 24.2864 65.2864 23.9751 65.6422 23.7082C65.998 23.4191 66.3316 23.1968 66.6429 23.0411C66.9764 22.8632 67.2878 22.7743 67.5768 22.7743C67.8659 22.7743 68.1439 22.841 68.4107 22.9744C68.6776 23.1078 68.9222 23.2857 69.1446 23.5081C69.3669 23.7082 69.5448 23.9528 69.6783 24.2419C69.8339 24.531 69.9229 24.8312 69.9451 25.1425C69.9896 25.5873 69.9118 26.032 69.7116 26.4768C69.5337 26.8993 69.2669 27.3107 68.9111 27.7109C68.5775 28.1112 68.1661 28.5004 67.6769 28.8784C67.1877 29.2564 66.654 29.6122 66.0758 29.9458C64.9417 30.6129 63.752 31.18 62.5067 31.6469C61.2837 32.0917 60.0718 32.403 58.8709 32.5809C57.6701 32.7366 56.5138 32.7366 55.4019 32.5809C54.2901 32.403 53.3005 32.025 52.4333 31.4468C51.566 30.8464 50.8433 30.0236 50.2651 28.9785C49.687 27.9111 49.32 26.5768 49.1644 24.9758C49.031 23.6193 49.1533 22.2517 49.5313 20.873C49.9316 19.472 50.5097 18.1378 51.2658 16.8703C52.0219 15.5805 52.9225 14.3797 53.9676 13.2678C55.0128 12.1337 56.1358 11.1553 57.3366 10.3325C58.5596 9.50973 59.816 8.86485 61.1058 8.39787C62.3956 7.90865 63.652 7.66404 64.875 7.66404C65.342 7.66404 65.8535 7.70851 66.4094 7.79746C66.9653 7.88641 67.4768 8.05319 67.9438 8.2978C68.433 8.52017 68.8444 8.83149 69.1779 9.23176C69.5337 9.63203 69.745 10.1435 69.8117 10.7661C69.8784 11.3665 69.7783 11.9447 69.5115 12.5006C69.1557 13.0343 68.9 13.5903 68.7443 14.1684C68.5886 14.7244 68.4774 15.2914 68.4107 15.8696C68.3663 16.4255 68.344 16.9815 68.344 17.5374C68.3663 18.0711 68.3774 18.5937 68.3774 19.1051C68.2662 19.6388 67.9882 20.0391 67.5435 20.3059C67.0987 20.5728 66.6206 20.6951 66.1092 20.6728C65.62 20.6506 65.1641 20.4949 64.7416 20.2059C64.3413 19.8945 64.1078 19.4498 64.0411 18.8716C64.0189 18.627 64.0522 18.2156 64.1412 17.6375C64.2524 17.0593 64.3858 16.4366 64.5415 15.7695C64.7193 15.0802 64.9195 14.4242 65.1419 13.8015C65.3642 13.1566 65.5755 12.6563 65.7756 12.3005ZM82.4455 20.4727C82.4455 21.2955 82.3677 22.1961 82.212 23.1745C82.0563 24.1307 81.7784 25.0313 81.3781 25.8764C80.9778 26.7214 80.433 27.433 79.7437 28.0111C79.0543 28.5671 78.1871 28.845 77.1419 28.845C76.1635 28.845 75.3184 28.6115 74.6069 28.1446C73.8953 27.6776 73.306 27.0883 72.839 26.3767C72.3942 25.6429 72.0607 24.8423 71.8383 23.9751C71.6382 23.0856 71.5381 22.2294 71.5381 21.4067C71.5381 20.5172 71.6382 19.6277 71.8383 18.7382C72.0385 17.8265 72.3498 17.0037 72.7723 16.2699C73.217 15.5138 73.7841 14.8911 74.4734 14.4019C75.1628 13.8905 75.9856 13.568 76.9418 13.4346C78.0759 13.3012 78.9987 13.4235 79.7103 13.8015C80.4441 14.1796 81.0112 14.7244 81.4115 15.436C81.8117 16.1253 82.0786 16.9259 82.212 17.8376C82.3677 18.7271 82.4455 19.6055 82.4455 20.4727ZM78.8764 20.4393C78.8764 20.2615 78.8653 19.9946 78.8431 19.6388C78.8208 19.2608 78.7763 18.8939 78.7096 18.5381C78.6429 18.16 78.5429 17.8376 78.4094 17.5707C78.276 17.3039 78.087 17.1705 77.8424 17.1705C77.4643 17.1705 77.153 17.3595 76.9084 17.7375C76.6638 18.1156 76.4859 18.5937 76.3747 19.1718C76.2635 19.7278 76.2079 20.3393 76.2079 21.0064C76.2079 21.6513 76.2524 22.2628 76.3414 22.841C76.4303 23.3969 76.5637 23.8639 76.7416 24.2419C76.9418 24.62 77.1753 24.809 77.4421 24.809C77.7312 24.809 77.9647 24.6311 78.1426 24.2753C78.3427 23.8972 78.4873 23.4636 78.5762 22.9744C78.6874 22.4852 78.7652 22.0071 78.8097 21.5401C78.8542 21.0509 78.8764 20.684 78.8764 20.4393ZM90.6844 24.7756C91.8852 24.6644 93.0971 24.5421 94.3202 24.4087C95.5432 24.253 96.7552 24.1752 97.956 24.1752C98.2896 24.1752 98.6676 24.2197 99.0901 24.3086C99.5348 24.3753 99.9351 24.4977 100.291 24.6755C100.669 24.8534 100.98 25.0869 101.225 25.376C101.492 25.6651 101.625 26.0209 101.625 26.4434C101.625 26.9326 101.503 27.3329 101.258 27.6442C101.036 27.9555 100.747 28.2002 100.391 28.3781C100.035 28.556 99.6349 28.6783 99.1902 28.745C98.7454 28.8117 98.3229 28.845 97.9226 28.845C97.2555 28.845 96.5884 28.8117 95.9213 28.745C95.2542 28.656 94.5982 28.6115 93.9533 28.6115C93.1527 28.6115 92.3411 28.7005 91.5183 28.8784C90.7178 29.0341 89.9506 29.212 89.2167 29.4121C88.4829 29.59 87.8158 29.7679 87.2154 29.9458C86.6372 30.1014 86.1814 30.1793 85.8478 30.1793C85.3363 30.1793 84.9027 29.9903 84.5469 29.6122C84.2134 29.2342 84.0466 28.8006 84.0466 28.3113C84.0466 27.7999 84.2912 27.1328 84.7804 26.31C85.2919 25.4872 85.9256 24.5977 86.6817 23.6415C87.4378 22.6631 88.2605 21.6624 89.15 20.6395C90.0618 19.5943 90.9179 18.6048 91.7184 17.6708C92.5412 16.7368 93.2528 15.8918 93.8532 15.1358C94.4759 14.3797 94.8761 13.7904 95.054 13.3679C94.8094 13.4568 94.4425 13.6125 93.9533 13.8349C93.4863 14.035 92.9526 14.2685 92.3522 14.5354C91.774 14.78 91.1514 15.0468 90.4843 15.3359C89.8394 15.6027 89.2167 15.8585 88.6163 16.1031C88.0382 16.3255 87.5156 16.5145 87.0486 16.6701C86.5816 16.8036 86.2369 16.8703 86.0146 16.8703C85.4364 16.8703 84.925 16.7591 84.4802 16.5367C84.0355 16.3143 83.8131 15.8696 83.8131 15.2025C83.8131 14.8467 83.8909 14.5465 84.0466 14.3019C84.2245 14.035 84.4802 13.846 84.8138 13.7348C85.0361 13.6459 85.5365 13.4568 86.3148 13.1678C87.0931 12.8564 88.0048 12.5118 89.05 12.1337C90.0951 11.7557 91.1959 11.3554 92.3522 10.9329C93.5085 10.5104 94.587 10.1213 95.5877 9.76546C96.5884 9.40966 97.4445 9.12058 98.1561 8.8982C98.8677 8.65359 99.2902 8.53129 99.4237 8.53129C99.735 8.53129 100.024 8.598 100.291 8.73142C100.58 8.86485 100.836 9.04275 101.058 9.26512C101.28 9.48749 101.447 9.74322 101.558 10.0323C101.692 10.3214 101.759 10.6327 101.759 10.9663C101.759 11.2331 101.525 11.7223 101.058 12.4339C100.591 13.1233 99.9907 13.9238 99.2569 14.8356C98.5453 15.7473 97.7447 16.7257 96.8552 17.7709C95.988 18.7938 95.143 19.7722 94.3202 20.7062C93.4974 21.6402 92.7525 22.4741 92.0854 23.2079C91.4405 23.9417 90.9735 24.4643 90.6844 24.7756ZM103.891 16.937C103.936 16.5367 104.103 16.1809 104.392 15.8696C104.681 15.536 105.025 15.2803 105.426 15.1024C105.826 14.9245 106.248 14.8244 106.693 14.8022C107.138 14.7577 107.527 14.8244 107.861 15.0023C108.216 15.158 108.494 15.4248 108.695 15.8029C108.895 16.1809 108.95 16.6812 108.861 17.3039C108.795 17.9043 108.739 18.5603 108.695 19.2719C108.65 19.9835 108.617 20.6951 108.594 21.4067C108.572 22.1183 108.561 22.8076 108.561 23.4747C108.561 24.1196 108.572 24.6978 108.594 25.2092C108.639 25.8319 108.628 26.3322 108.561 26.7103C108.517 27.0661 108.417 27.344 108.261 27.5442C108.105 27.7443 107.894 27.8888 107.627 27.9778C107.383 28.0445 107.082 28.089 106.727 28.1112C106.215 28.1779 105.726 27.9778 105.259 27.5108C104.814 27.0216 104.503 26.3989 104.325 25.6429C104.125 24.9535 103.969 24.1863 103.858 23.3413C103.747 22.4741 103.669 21.629 103.624 20.8063C103.602 19.9835 103.613 19.2274 103.658 18.5381C103.702 17.8487 103.78 17.315 103.891 16.937ZM106.526 13.4346C105.881 13.3901 105.359 13.1344 104.959 12.6674C104.558 12.1782 104.38 11.5778 104.425 10.8662C104.514 10.1101 104.781 9.49861 105.225 9.03163C105.692 8.54241 106.271 8.33115 106.96 8.39787C107.605 8.48681 108.161 8.7759 108.628 9.26512C109.095 9.7321 109.284 10.3325 109.195 11.0663C109.15 11.4221 109.05 11.7557 108.895 12.067C108.739 12.3561 108.539 12.6118 108.294 12.8342C108.05 13.0566 107.772 13.2234 107.46 13.3345C107.149 13.4457 106.838 13.4791 106.526 13.4346ZM112.356 27.6776C111.956 27.6776 111.589 27.5553 111.255 27.3107C110.922 27.0661 110.755 26.7214 110.755 26.2766C110.755 25.654 110.777 25.0425 110.822 24.4421C110.888 23.8194 110.955 23.2079 111.022 22.6075C111.044 22.4073 111.066 22.0627 111.089 21.5734C111.111 21.0842 111.122 20.5394 111.122 19.939C111.122 19.3164 111.111 18.6937 111.089 18.0711C111.066 17.4262 111.022 16.8703 110.955 16.4033C110.888 15.9141 111.011 15.4471 111.322 15.0023C111.633 14.5576 112 14.2463 112.423 14.0684C112.868 13.8682 113.29 13.8682 113.69 14.0684C114.113 14.2463 114.38 14.7021 114.491 15.436C114.535 15.814 114.569 16.192 114.591 16.5701C114.613 16.9481 114.647 17.2594 114.691 17.504C114.913 17.2372 115.18 16.9036 115.492 16.5034C115.825 16.1031 116.17 15.725 116.526 15.3692C116.904 14.9912 117.293 14.6799 117.693 14.4353C118.093 14.1684 118.482 14.035 118.861 14.035C119.572 14.035 120.184 14.2018 120.695 14.5354C121.229 14.8689 121.607 15.4026 121.829 16.1364C122.029 16.8036 122.141 17.5707 122.163 18.438C122.185 19.283 122.174 20.128 122.129 20.973C122.085 21.8181 122.018 22.6075 121.929 23.3413C121.863 24.0529 121.829 24.6088 121.829 25.0091C121.829 25.2982 121.84 25.5539 121.863 25.7763C121.907 25.9764 121.951 26.1654 121.996 26.3433C122.063 26.5212 122.107 26.6991 122.129 26.877C122.174 27.0549 122.196 27.2551 122.196 27.4774C122.196 28.0111 121.985 28.4225 121.562 28.7116C121.162 28.9785 120.728 29.1119 120.261 29.1119C119.261 29.1119 118.538 28.7116 118.093 27.9111C117.649 27.0883 117.426 25.932 117.426 24.4421C117.426 24.0418 117.448 23.597 117.493 23.1078C117.537 22.6186 117.593 22.1183 117.66 21.6068C117.86 20.0502 117.882 19.0162 117.726 18.5047C117.571 17.971 117.293 17.9821 116.893 18.5381C116.248 19.4498 115.736 20.4505 115.358 21.5401C115.002 22.6297 114.735 23.7082 114.558 24.7756C114.424 25.5984 114.202 26.2878 113.89 26.8437C113.579 27.3996 113.068 27.6776 112.356 27.6776ZM130.059 19.6055C129.748 19.7389 129.504 20.2281 129.326 21.0731C129.17 21.8959 129.137 23.0411 129.226 24.5088C129.292 25.4872 129.07 26.221 128.558 26.7103C128.069 27.1995 127.513 27.4441 126.891 27.4441C126.424 27.4441 126.012 27.2773 125.657 26.9438C125.301 26.6102 125.001 26.1766 124.756 25.6429C124.511 25.1092 124.311 24.5199 124.155 23.875C124 23.2079 123.878 22.5519 123.789 21.907C123.7 21.2399 123.633 20.6284 123.588 20.0724C123.566 19.5165 123.555 19.0606 123.555 18.7048C123.555 18.1711 123.577 17.5374 123.622 16.8036C123.666 16.0697 123.744 15.3025 123.855 14.502C123.989 13.7015 124.167 12.912 124.389 12.1337C124.634 11.3332 124.934 10.6216 125.29 9.99895C125.668 9.3763 126.123 8.87597 126.657 8.49793C127.191 8.09766 127.825 7.89753 128.558 7.89753C128.848 7.89753 129.114 7.96424 129.359 8.09766C129.626 8.20885 129.859 8.37563 130.059 8.598C130.26 8.79814 130.415 9.03163 130.526 9.29848C130.638 9.56532 130.693 9.84329 130.693 10.1324C130.693 10.5104 130.571 10.9552 130.326 11.4666C130.104 11.9558 129.848 12.5118 129.559 13.1344C129.292 13.757 129.037 14.4353 128.792 15.1691C128.547 15.9029 128.414 16.6924 128.392 17.5374C128.814 17.2261 129.214 16.9592 129.593 16.7368C129.993 16.4922 130.471 16.3699 131.027 16.3699C131.961 16.3699 132.695 16.5923 133.228 17.037C133.762 17.4818 134.151 18.0377 134.396 18.7048C134.663 19.372 134.818 20.0947 134.863 20.873C134.929 21.6513 134.963 22.374 134.963 23.0411C134.963 23.6415 135.063 24.1974 135.263 24.7089C135.485 25.2204 135.597 25.7318 135.597 26.2433C135.597 26.7992 135.363 27.2662 134.896 27.6442C134.451 28.0223 133.962 28.2113 133.428 28.2113C132.828 28.2113 132.339 28.089 131.961 27.8444C131.605 27.5775 131.316 27.2328 131.094 26.8103C130.893 26.3878 130.76 25.9097 130.693 25.376C130.627 24.8423 130.593 24.2864 130.593 23.7082C130.593 22.8854 130.627 22.1183 130.693 21.4067C130.693 21.251 130.704 21.0509 130.727 20.8063C130.771 20.5617 130.782 20.3282 130.76 20.1058C130.738 19.8834 130.671 19.7166 130.56 19.6055C130.471 19.4943 130.304 19.4943 130.059 19.6055ZM147.526 24.809L142.79 25.6429C142.745 25.9764 142.701 26.3656 142.656 26.8103C142.612 27.2328 142.534 27.6331 142.423 28.0111C142.312 28.3669 142.134 28.6783 141.889 28.9451C141.667 29.1897 141.333 29.312 140.888 29.312C140.421 29.312 140.055 29.2231 139.788 29.0452C139.543 28.845 139.354 28.5893 139.221 28.278C139.109 27.9667 139.032 27.6109 138.987 27.2106C138.965 26.8103 138.932 26.3989 138.887 25.9764C138.598 25.9764 138.32 25.9653 138.053 25.9431C137.786 25.8986 137.542 25.8208 137.319 25.7096C137.119 25.5984 136.952 25.4316 136.819 25.2092C136.708 24.9869 136.652 24.6755 136.652 24.2753C136.652 23.8305 136.797 23.4859 137.086 23.2412C137.397 22.9966 137.742 22.7854 138.12 22.6075C138.498 22.4296 138.854 22.2294 139.187 22.0071C139.543 21.7847 139.777 21.4734 139.888 21.0731C140.066 20.4282 140.31 19.661 140.622 18.7716C140.955 17.8821 141.333 16.9592 141.756 16.003C142.178 15.0246 142.656 14.0684 143.19 13.1344C143.724 12.1782 144.302 11.3332 144.924 10.5994C145.569 9.84329 146.236 9.23176 146.926 8.76478C147.637 8.2978 148.382 8.06431 149.161 8.06431C150.006 8.06431 150.695 8.27556 151.229 8.69807C151.762 9.12058 152.174 9.66539 152.463 10.3325C152.774 10.9996 152.986 11.7668 153.097 12.6341C153.208 13.4791 153.263 14.3352 153.263 15.2025C153.286 16.0697 153.275 16.9036 153.23 17.7042C153.208 18.5047 153.197 19.1941 153.197 19.7722C153.197 20.0836 153.241 20.3282 153.33 20.5061C153.441 20.684 153.553 20.8396 153.664 20.973C153.775 21.1065 153.875 21.2399 153.964 21.3733C154.075 21.4845 154.131 21.629 154.131 21.8069C154.131 21.9848 154.075 22.1516 153.964 22.3073C153.875 22.4407 153.775 22.5964 153.664 22.7743C153.553 22.9299 153.441 23.1189 153.33 23.3413C153.241 23.5414 153.197 23.7972 153.197 24.1085C153.197 24.6867 153.241 25.2537 153.33 25.8097C153.419 26.3656 153.519 26.9326 153.63 27.5108C153.764 28.0667 153.875 28.6227 153.964 29.1786C154.053 29.7123 154.097 30.246 154.097 30.7797C154.097 31.5802 153.808 32.214 153.23 32.681C152.674 33.1257 152.04 33.3481 151.329 33.3481C150.551 33.3481 149.928 33.2035 149.461 32.9145C149.016 32.6031 148.671 32.214 148.427 31.747C148.182 31.2578 148.015 30.713 147.927 30.1126C147.838 29.4899 147.782 28.8673 147.76 28.2446C147.738 27.5998 147.715 26.9771 147.693 26.3767C147.671 25.7763 147.615 25.2537 147.526 24.809ZM147.76 21.1065C147.738 20.3726 147.749 19.6499 147.793 18.9383C147.86 18.2045 147.915 17.4707 147.96 16.7368C148.027 15.8696 147.993 15.2581 147.86 14.9023C147.726 14.5242 147.548 14.3575 147.326 14.4019C147.104 14.4242 146.837 14.6132 146.526 14.969C146.236 15.3248 145.959 15.7918 145.692 16.3699C145.269 17.2594 144.902 18.1823 144.591 19.1385C144.28 20.0947 144.068 20.8841 143.957 21.5067L147.76 21.1065ZM156.173 16.937C156.217 16.5367 156.384 16.1809 156.673 15.8696C156.962 15.536 157.307 15.2803 157.707 15.1024C158.107 14.9245 158.53 14.8244 158.975 14.8022C159.419 14.7577 159.809 14.8244 160.142 15.0023C160.498 15.158 160.776 15.4248 160.976 15.8029C161.176 16.1809 161.232 16.6812 161.143 17.3039C161.076 17.9043 161.02 18.5603 160.976 19.2719C160.932 19.9835 160.898 20.6951 160.876 21.4067C160.854 22.1183 160.843 22.8076 160.843 23.4747C160.843 24.1196 160.854 24.6978 160.876 25.2092C160.92 25.8319 160.909 26.3322 160.843 26.7103C160.798 27.0661 160.698 27.344 160.542 27.5442C160.387 27.7443 160.175 27.8888 159.909 27.9778C159.664 28.0445 159.364 28.089 159.008 28.1112C158.497 28.1779 158.007 27.9778 157.54 27.5108C157.096 27.0216 156.784 26.3989 156.606 25.6429C156.406 24.9535 156.251 24.1863 156.139 23.3413C156.028 22.4741 155.95 21.629 155.906 20.8063C155.884 19.9835 155.895 19.2274 155.939 18.5381C155.984 17.8487 156.062 17.315 156.173 16.937ZM158.808 13.4346C158.163 13.3901 157.64 13.1344 157.24 12.6674C156.84 12.1782 156.662 11.5778 156.706 10.8662C156.795 10.1101 157.062 9.49861 157.507 9.03163C157.974 8.54241 158.552 8.33115 159.241 8.39787C159.886 8.48681 160.442 8.7759 160.909 9.26512C161.376 9.7321 161.565 10.3325 161.476 11.0663C161.432 11.4221 161.332 11.7557 161.176 12.067C161.02 12.3561 160.82 12.6118 160.576 12.8342C160.331 13.0566 160.053 13.2234 159.742 13.3345C159.43 13.4457 159.119 13.4791 158.808 13.4346Z" fill="url(#paint1_linear_118_47)"/>
<defs>
<linearGradient id="paint0_linear_118_47" x1="24.9429" y1="41.2362" x2="24.9429" y2="16.7739" gradientUnits="userSpaceOnUse">
<stop stop-color="#57CC99"/>
</linearGradient>
<linearGradient id="paint1_linear_118_47" x1="105.975" y1="33.3506" x2="105.975" y2="-15.2041" gradientUnits="userSpaceOnUse">
<stop stop-color="#22577A"/>
<stop offset="1" stop-color="#57CC99"/>
</linearGradient>
</defs>
</svg>
