<svg width="62" height="68" viewBox="0 0 62 68" fill="none" xmlns="http://www.w3.org/2000/svg">
<path d="M7.75 60.25H19.375V40.875C19.375 39.7771 19.747 38.8574 20.491 38.116C21.235 37.3746 22.1547 37.0026 23.25 37H38.75C39.8479 37 40.7689 37.372 41.5129 38.116C42.2569 38.86 42.6276 39.7797 42.625 40.875V60.25H54.25V25.375L31 7.9375L7.75 25.375V60.25ZM0 60.25V25.375C0 24.1479 0.275124 22.9854 0.825374 21.8875C1.37562 20.7896 2.13383 19.8854 3.1 19.175L26.35 1.7375C27.7062 0.704167 29.2562 0.1875 31 0.1875C32.7437 0.1875 34.2937 0.704167 35.65 1.7375L58.9 19.175C59.8687 19.8854 60.6282 20.7896 61.1785 21.8875C61.7287 22.9854 62.0026 24.1479 62 25.375V60.25C62 62.3812 61.2405 64.2064 59.7215 65.7254C58.2025 67.2444 56.3787 68.0026 54.25 68H38.75C37.6521 68 36.7324 67.628 35.991 66.884C35.2496 66.14 34.8776 65.2203 34.875 64.125V44.75H27.125V64.125C27.125 65.2229 26.753 66.1439 26.009 66.8879C25.265 67.6319 24.3453 68.0026 23.25 68H7.75C5.61875 68 3.79492 67.2418 2.2785 65.7254C0.762082 64.2089 0.00258333 62.3838 0 60.25Z" fill="#22577A"/>
</svg>
