<svg width="55" height="55" viewBox="0 0 55 55" fill="none" xmlns="http://www.w3.org/2000/svg">
<path d="M15.7521 0H38.4833C47.1427 0 54.1786 7.03583 54.1786 15.6953V38.4264C54.1786 42.5891 52.525 46.5812 49.5815 49.5247C46.6381 52.4681 42.6459 54.1217 38.4833 54.1217H15.7521C7.09265 54.1217 0.0568237 47.0859 0.0568237 38.4264V15.6953C0.0568237 11.5327 1.71043 7.54049 4.65387 4.59705C7.59731 1.65361 11.5895 0 15.7521 0ZM15.2109 5.41217C12.6272 5.41217 10.1493 6.43855 8.32234 8.26551C6.49538 10.0925 5.469 12.5704 5.469 15.1541V38.9677C5.469 44.3528 9.8258 48.7096 15.2109 48.7096H39.0245C41.6082 48.7096 44.0861 47.6832 45.913 45.8562C47.74 44.0293 48.7664 41.5514 48.7664 38.9677V15.1541C48.7664 9.76897 44.4096 5.41217 39.0245 5.41217H15.2109ZM41.3246 9.4713C42.2218 9.4713 43.0822 9.82769 43.7165 10.462C44.3509 11.0964 44.7073 11.9568 44.7073 12.8539C44.7073 13.751 44.3509 14.6114 43.7165 15.2458C43.0822 15.8801 42.2218 16.2365 41.3246 16.2365C40.4275 16.2365 39.5671 15.8801 38.9328 15.2458C38.2984 14.6114 37.942 13.751 37.942 12.8539C37.942 11.9568 38.2984 11.0964 38.9328 10.462C39.5671 9.82769 40.4275 9.4713 41.3246 9.4713ZM27.1177 13.5304C30.7062 13.5304 34.1477 14.956 36.6852 17.4934C39.2226 20.0309 40.6481 23.4724 40.6481 27.0609C40.6481 30.6494 39.2226 34.0909 36.6852 36.6283C34.1477 39.1658 30.7062 40.5913 27.1177 40.5913C23.5292 40.5913 20.0877 39.1658 17.5502 36.6283C15.0128 34.0909 13.5873 30.6494 13.5873 27.0609C13.5873 23.4724 15.0128 20.0309 17.5502 17.4934C20.0877 14.956 23.5292 13.5304 27.1177 13.5304ZM27.1177 18.9426C24.9646 18.9426 22.8997 19.7979 21.3772 21.3204C19.8547 22.8429 18.9994 24.9078 18.9994 27.0609C18.9994 29.214 19.8547 31.2789 21.3772 32.8013C22.8997 34.3238 24.9646 35.1791 27.1177 35.1791C29.2708 35.1791 31.3357 34.3238 32.8582 32.8013C34.3806 31.2789 35.236 29.214 35.236 27.0609C35.236 24.9078 34.3806 22.8429 32.8582 21.3204C31.3357 19.7979 29.2708 18.9426 27.1177 18.9426Z" fill="white"/>
</svg>
