<svg width="31" height="33" viewBox="0 0 31 33" fill="none" xmlns="http://www.w3.org/2000/svg">
<path d="M1.5448 12.9763V27.557C1.5448 29.9079 3.45059 31.8137 5.80151 31.8137H25.5269C27.8778 31.8137 29.7836 29.9079 29.7836 27.557V13.0785C29.7836 11.7201 29.1352 10.4432 28.0384 9.6417L17.7141 2.09698C16.1691 0.967971 14.0607 1.00863 12.5604 2.19636L3.15936 9.63883C2.13952 10.4462 1.5448 11.6756 1.5448 12.9763Z" stroke="#22577A" stroke-width="1.82186" stroke-linejoin="round"/>
<path fill-rule="evenodd" clip-rule="evenodd" d="M9.97207 17.1379C9.97207 17.518 9.65687 17.8332 9.27678 17.8332C8.89669 17.8332 8.58149 17.518 8.58149 17.1379C8.58149 12.9013 11.8447 9.40627 15.998 9.05399V8.33088C15.998 7.95079 16.3132 7.63559 16.6932 7.63559C17.0733 7.63559 17.3885 7.95079 17.3885 8.33088V9.05399C21.5418 9.40627 24.805 12.9013 24.805 17.1379C24.805 17.518 24.4898 17.8332 24.1097 17.8332C23.7296 17.8332 23.4144 17.518 23.4144 17.1379C23.4144 13.4297 20.4015 10.4168 16.6932 10.4168C12.985 10.4168 9.97207 13.4297 9.97207 17.1379ZM8.34879 18.7603H24.9988C25.3789 18.7603 25.6941 19.0755 25.6941 19.4556C25.6941 19.8357 25.3789 20.1509 24.9988 20.1509H23.4506L21.0495 22.793C19.9926 23.9425 19.4364 24.5451 18.6762 24.9067C17.9068 25.2775 17.0724 25.3331 15.552 25.4258L12.5391 25.6205C11.918 25.6576 11.6306 25.6854 11.4359 25.7689C11.2505 25.8523 11.0651 26.0377 10.6015 26.5012L9.73938 27.3634C9.60032 27.5025 9.42418 27.5673 9.24804 27.5673C9.0719 27.5673 8.89576 27.5025 8.7567 27.3634C8.62739 27.2326 8.55488 27.056 8.55488 26.8721C8.55488 26.6881 8.62739 26.5116 8.7567 26.3807L9.61886 25.5185C10.1287 25.0087 10.4347 24.7027 10.8704 24.5081C11.2968 24.3134 11.7326 24.2763 12.4649 24.2392L15.4779 24.0445L15.6373 24.0334C16.9222 23.9481 17.5842 23.9036 18.0922 23.6552C18.6039 23.4169 19.0526 22.9274 19.937 21.9624L19.9741 21.9216L21.5872 20.1509H20.2059L18.7504 21.6064C18.6979 21.6558 18.654 21.6978 18.6187 21.7324C18.5723 21.7795 18.5234 21.8241 18.4723 21.8659C18.0829 22.209 17.5823 22.4222 17.0353 22.4593C16.9704 22.4685 16.8685 22.4685 16.6738 22.4685H13.4291C13.049 22.4685 12.7338 22.1533 12.7338 21.7732C12.7338 21.3931 13.049 21.0779 13.4291 21.0779H15.9599C15.8672 20.6237 15.515 20.2714 15.0514 20.1787C14.9402 20.1509 14.727 20.1509 14.3654 20.1509H13.6423C12.7431 20.1509 12.2888 20.1509 11.918 20.2436C11.6213 20.3085 11.3617 20.4197 11.1392 20.5588C10.7962 20.7627 10.481 21.0779 9.84136 21.7176L6.98602 24.5822C6.71717 24.8511 6.27218 24.8511 6.00334 24.5822C5.87403 24.4514 5.80151 24.2748 5.80151 24.0909C5.80151 23.9069 5.87403 23.7304 6.00334 23.5995L8.85868 20.7442C9.09044 20.5124 9.28512 20.3178 9.46126 20.1509H8.34879C7.9687 20.1509 7.6535 19.8357 7.6535 19.4556C7.6535 19.0755 7.9687 18.7603 8.34879 18.7603ZM17.7167 20.6849L17.777 20.6237L18.2498 20.1509H17.1002C17.2022 20.3548 17.2856 20.5773 17.332 20.8091C17.3505 20.8554 17.3598 20.9111 17.3598 20.9574C17.4432 20.9111 17.5174 20.8647 17.5916 20.7998C17.6367 20.7654 17.6786 20.7269 17.7167 20.6849Z" fill="url(#paint0_linear_53_4)"/>
<defs>
<linearGradient id="paint0_linear_53_4" x1="15.7831" y1="35.1775" x2="15.7831" y2="13.5137" gradientUnits="userSpaceOnUse">
<stop stop-color="#57CC99"/>
</linearGradient>
</defs>
</svg>
