<svg width="18" height="18" viewBox="0 0 18 18" fill="none" xmlns="http://www.w3.org/2000/svg">
<path d="M16.4978 17.4113L10.4998 11.4133C10.0237 11.7941 9.47631 12.0956 8.85747 12.3177C8.23863 12.5399 7.58012 12.651 6.88194 12.651C5.15236 12.651 3.68873 12.0518 2.49103 10.8535C1.29334 9.65514 0.694178 8.19151 0.693543 6.46257C0.692908 4.73362 1.29207 3.26999 2.49103 2.07166C3.69 0.873334 5.15363 0.27417 6.88194 0.27417C8.61025 0.27417 10.0742 0.873334 11.2738 2.07166C12.4734 3.26999 13.0722 4.73362 13.0703 6.46257C13.0703 7.16074 12.9593 7.81925 12.7371 8.43809C12.515 9.05693 12.2135 9.60437 11.8327 10.0804L17.8306 16.0784L16.4978 17.4113ZM6.88194 10.7468C8.07202 10.7468 9.08374 10.3305 9.91711 9.49774C10.7505 8.665 11.1668 7.65328 11.1662 6.46257C11.1656 5.27186 10.7492 4.26045 9.91711 3.42835C9.08501 2.59625 8.07328 2.17956 6.88194 2.17829C5.69059 2.17702 4.67919 2.59371 3.84772 3.42835C3.01625 4.26299 2.59957 5.27439 2.59766 6.46257C2.59576 7.65074 3.01245 8.66246 3.84772 9.49774C4.683 10.333 5.6944 10.7494 6.88194 10.7468Z" fill="#22577A"/>
</svg>
