<svg width="44" height="49" viewBox="0 0 44 49" fill="none" xmlns="http://www.w3.org/2000/svg">
<path d="M34.5725 7.63116C32.7231 5.51914 31.7037 2.80729 31.704 0H23.3422V33.5555C23.279 35.3718 22.5128 37.0925 21.2052 38.3547C19.8976 39.6169 18.1508 40.3218 16.3334 40.3207C12.4908 40.3207 9.2976 37.1816 9.2976 33.2849C9.2976 28.6304 13.7897 25.1395 18.4171 26.5738V18.0225C9.08111 16.7777 0.90873 24.0301 0.90873 33.2849C0.90873 42.2961 8.37753 48.7096 16.3064 48.7096C24.8035 48.7096 31.704 41.809 31.704 33.2849V16.2636C35.0947 18.6987 39.1657 20.0051 43.3402 19.998V11.6362C43.3402 11.6362 38.2527 11.8797 34.5725 7.63116Z" fill="white"/>
</svg>
