<svg width="57" height="46" viewBox="0 0 57 46" fill="none" xmlns="http://www.w3.org/2000/svg">
<path d="M56.6113 5.41217C54.5276 6.3593 52.2816 6.9817 49.9544 7.27937C52.3357 5.84515 54.1759 3.57203 55.0418 0.838887C52.7958 2.19193 50.3062 3.13906 47.6812 3.68028C45.5434 1.35304 42.5397 0 39.13 0C32.7707 0 27.575 5.19569 27.575 11.6091C27.575 12.5292 27.6833 13.4222 27.8727 14.2611C18.239 13.774 9.66073 9.14657 3.95089 2.13781C2.94963 3.84264 2.38136 5.84515 2.38136 7.9559C2.38136 11.988 4.41092 15.56 7.54998 17.5896C5.62866 17.5896 3.84264 17.0483 2.27311 16.2365V16.3177C2.27311 21.9464 6.27812 26.655 11.5821 27.7103C9.87949 28.1783 8.0913 28.2432 6.3593 27.8998C7.0943 30.2066 8.53374 32.2252 10.4753 33.6717C12.4169 35.1181 14.7629 35.9198 17.1837 35.9639C13.0803 39.2126 7.99381 40.9685 2.76021 40.9431C1.84014 40.9431 0.92007 40.889 0 40.7807C5.14156 44.0822 11.2573 46.0035 17.8061 46.0035C39.13 46.0035 50.8474 28.3057 50.8474 12.9622C50.8474 12.448 50.8474 11.9609 50.8203 11.4467C53.0934 9.8231 55.0418 7.76647 56.6113 5.41217Z" fill="white"/>
</svg>
